<?xml version="1.0" encoding="UTF-8" standalone="no"?>
<!DOCTYPE svg PUBLIC "-//W3C//DTD SVG 1.1//EN"
 "http://www.w3.org/Graphics/SVG/1.1/DTD/svg11.dtd">
<!-- Generated by graphviz version 2.38.0 (20140413.2041)
 -->
<!-- Title: controllers_diagram Pages: 1 -->
<svg width="594pt" height="630pt"
 viewBox="0.00 0.00 594.05 629.98" xmlns="http://www.w3.org/2000/svg" xmlns:xlink="http://www.w3.org/1999/xlink">
<g id="graph0" class="graph" transform="scale(1 1) rotate(0) translate(214.364 290.246)">
<title>controllers_diagram</title>
<polygon fill="white" stroke="none" points="-214.364,339.736 -214.364,-290.246 379.688,-290.246 379.688,339.736 -214.364,339.736"/>
<!-- _diagram_info -->
<g id="node1" class="node"><title>_diagram_info</title>
<text text-anchor="start" x="176.312" y="-17.1" font-family="Times,serif" font-size="13.00">Controllers diagram</text>
<text text-anchor="start" x="176.312" y="-4.1" font-family="Times,serif" font-size="13.00">Date: Jun 24 2014 &#45; 13:13</text>
<text text-anchor="start" x="176.312" y="8.9" font-family="Times,serif" font-size="13.00">Migration version: 20140620233018</text>
<text text-anchor="start" x="176.312" y="21.9" font-family="Times,serif" font-size="13.00">Generated by RailRoady 1.1.1</text>
<text text-anchor="start" x="176.312" y="34.9" font-family="Times,serif" font-size="13.00">http://railroady.prestonlee.com</text>
</g>
<!-- ApplicationController -->
<g id="node2" class="node"><title>ApplicationController</title>
<path fill="none" stroke="black" d="M-10.2497,98.8957C-10.2497,98.8957 105.392,98.8957 105.392,98.8957 111.392,98.8957 117.392,92.8957 117.392,86.8957 117.392,86.8957 117.392,18.8957 117.392,18.8957 117.392,12.8957 111.392,6.89572 105.392,6.89572 105.392,6.89572 -10.2497,6.89572 -10.2497,6.89572 -16.2497,6.89572 -22.2497,12.8957 -22.2497,18.8957 -22.2497,18.8957 -22.2497,86.8957 -22.2497,86.8957 -22.2497,92.8957 -16.2497,98.8957 -10.2497,98.8957"/>
<text text-anchor="middle" x="47.5711" y="22.0957" font-family="Times,serif" font-size="14.00">ApplicationController</text>
<polyline fill="none" stroke="black" points="-22.2497,28.8957 117.392,28.8957 "/>
<polyline fill="none" stroke="black" points="-22.2497,52.8957 117.392,52.8957 "/>
<polyline fill="none" stroke="black" points="-22.2497,76.8957 117.392,76.8957 "/>
<text text-anchor="start" x="-14.2497" y="92.0957" font-family="Times,serif" font-size="14.00">_layout</text>
</g>
<!-- KanbansController -->
<g id="node3" class="node"><title>KanbansController</title>
<path fill="none" stroke="black" d="M81.6083,335.236C81.6083,335.236 189.204,335.236 189.204,335.236 195.204,335.236 201.204,329.236 201.204,323.236 201.204,323.236 201.204,131.236 201.204,131.236 201.204,125.236 195.204,119.236 189.204,119.236 189.204,119.236 81.6083,119.236 81.6083,119.236 75.6083,119.236 69.6083,125.236 69.6083,131.236 69.6083,131.236 69.6083,323.236 69.6083,323.236 69.6083,329.236 75.6083,335.236 81.6083,335.236"/>
<text text-anchor="middle" x="135.406" y="134.436" font-family="Times,serif" font-size="14.00">KanbansController</text>
<polyline fill="none" stroke="black" points="69.6083,141.236 201.204,141.236 "/>
<text text-anchor="start" x="77.6083" y="156.436" font-family="Times,serif" font-size="14.00">default</text>
<text text-anchor="start" x="77.6083" y="170.436" font-family="Times,serif" font-size="14.00">destroy</text>
<text text-anchor="start" x="77.6083" y="184.436" font-family="Times,serif" font-size="14.00">edit</text>
<text text-anchor="start" x="77.6083" y="198.436" font-family="Times,serif" font-size="14.00">index</text>
<text text-anchor="start" x="77.6083" y="212.436" font-family="Times,serif" font-size="14.00">new</text>
<text text-anchor="start" x="77.6083" y="226.436" font-family="Times,serif" font-size="14.00">show</text>
<text text-anchor="start" x="77.6083" y="240.436" font-family="Times,serif" font-size="14.00">update</text>
<polyline fill="none" stroke="black" points="69.6083,247.236 201.204,247.236 "/>
<polyline fill="none" stroke="black" points="69.6083,271.236 201.204,271.236 "/>
<text text-anchor="start" x="77.6083" y="286.436" font-family="Times,serif" font-size="14.00">_layout</text>
<text text-anchor="start" x="77.6083" y="300.436" font-family="Times,serif" font-size="14.00">delete_tasks</text>
<text text-anchor="start" x="77.6083" y="314.436" font-family="Times,serif" font-size="14.00">detect_changes</text>
<text text-anchor="start" x="77.6083" y="328.436" font-family="Times,serif" font-size="14.00">kanban_params</text>
</g>
<!-- ApplicationController&#45;&gt;KanbansController -->
<g id="edge1" class="edge"><title>ApplicationController&#45;&gt;KanbansController</title>
<path fill="none" stroke="black" d="M70.8787,99.1579C74.0806,105.513 77.4715,112.244 80.9564,119.161"/>
</g>
<!-- TasksController -->
<g id="node4" class="node"><title>TasksController</title>
<path fill="none" stroke="black" d="M-176.481,326.793C-176.481,326.793 -48.6507,326.793 -48.6507,326.793 -42.6507,326.793 -36.6507,320.793 -36.6507,314.793 -36.6507,314.793 -36.6507,164.793 -36.6507,164.793 -36.6507,158.793 -42.6507,152.793 -48.6507,152.793 -48.6507,152.793 -176.481,152.793 -176.481,152.793 -182.481,152.793 -188.481,158.793 -188.481,164.793 -188.481,164.793 -188.481,314.793 -188.481,314.793 -188.481,320.793 -182.481,326.793 -176.481,326.793"/>
<text text-anchor="middle" x="-112.566" y="167.993" font-family="Times,serif" font-size="14.00">TasksController</text>
<polyline fill="none" stroke="black" points="-188.481,174.793 -36.6507,174.793 "/>
<text text-anchor="start" x="-180.481" y="189.993" font-family="Times,serif" font-size="14.00">create</text>
<text text-anchor="start" x="-180.481" y="203.993" font-family="Times,serif" font-size="14.00">edit</text>
<text text-anchor="start" x="-180.481" y="217.993" font-family="Times,serif" font-size="14.00">index</text>
<text text-anchor="start" x="-180.481" y="231.993" font-family="Times,serif" font-size="14.00">new</text>
<text text-anchor="start" x="-180.481" y="245.993" font-family="Times,serif" font-size="14.00">show</text>
<text text-anchor="start" x="-180.481" y="259.993" font-family="Times,serif" font-size="14.00">update</text>
<polyline fill="none" stroke="black" points="-188.481,266.793 -36.6507,266.793 "/>
<polyline fill="none" stroke="black" points="-188.481,290.793 -36.6507,290.793 "/>
<text text-anchor="start" x="-180.481" y="305.993" font-family="Times,serif" font-size="14.00">_layout</text>
<text text-anchor="start" x="-180.481" y="319.993" font-family="Times,serif" font-size="14.00">task_params</text>
</g>
<!-- ApplicationController&#45;&gt;TasksController -->
<g id="edge2" class="edge"><title>ApplicationController&#45;&gt;TasksController</title>
<path fill="none" stroke="black" d="M7.9867,99.0951C-5.9062,115.31 -22.0058,134.1 -37.8267,152.564"/>
</g>
<!-- SessionsController -->
<g id="node5" class="node"><title>SessionsController</title>
<path fill="none" stroke="black" d="M-198.364,73.063C-198.364,73.063 -100.584,73.063 -100.584,73.063 -94.5842,73.063 -88.5842,67.063 -88.5842,61.063 -88.5842,61.063 -88.5842,-32.937 -88.5842,-32.937 -88.5842,-38.937 -94.5842,-44.937 -100.584,-44.937 -100.584,-44.937 -198.364,-44.937 -198.364,-44.937 -204.364,-44.937 -210.364,-38.937 -210.364,-32.937 -210.364,-32.937 -210.364,61.063 -210.364,61.063 -210.364,67.063 -204.364,73.063 -198.364,73.063"/>
<text text-anchor="middle" x="-149.474" y="-29.737" font-family="Times,serif" font-size="14.00">SessionsController</text>
<polyline fill="none" stroke="black" points="-210.364,-22.937 -88.5842,-22.937 "/>
<text text-anchor="start" x="-202.364" y="-7.73697" font-family="Times,serif" font-size="14.00">create</text>
<text text-anchor="start" x="-202.364" y="6.26303" font-family="Times,serif" font-size="14.00">destroy</text>
<text text-anchor="start" x="-202.364" y="20.263" font-family="Times,serif" font-size="14.00">new</text>
<polyline fill="none" stroke="black" points="-210.364,27.063 -88.5842,27.063 "/>
<polyline fill="none" stroke="black" points="-210.364,51.063 -88.5842,51.063 "/>
<text text-anchor="start" x="-202.364" y="66.263" font-family="Times,serif" font-size="14.00">_layout</text>
</g>
<!-- ApplicationController&#45;&gt;SessionsController -->
<g id="edge3" class="edge"><title>ApplicationController&#45;&gt;SessionsController</title>
<path fill="none" stroke="black" d="M-22.4544,39.0954C-44.0249,34.8444 -67.5894,30.2004 -88.5002,26.0794"/>
</g>
<!-- StaticPagesController -->
<g id="node6" class="node"><title>StaticPagesController</title>
<path fill="none" stroke="black" d="M87.5206,-79.9519C87.5206,-79.9519 201.61,-79.9519 201.61,-79.9519 207.61,-79.9519 213.61,-85.9519 213.61,-91.9519 213.61,-91.9519 213.61,-157.952 213.61,-157.952 213.61,-163.952 207.61,-169.952 201.61,-169.952 201.61,-169.952 87.5206,-169.952 87.5206,-169.952 81.5206,-169.952 75.5206,-163.952 75.5206,-157.952 75.5206,-157.952 75.5206,-91.9519 75.5206,-91.9519 75.5206,-85.9519 81.5206,-79.9519 87.5206,-79.9519"/>
<text text-anchor="middle" x="144.565" y="-154.752" font-family="Times,serif" font-size="14.00">StaticPagesController</text>
<polyline fill="none" stroke="black" points="75.5206,-147.952 213.61,-147.952 "/>
<text text-anchor="start" x="83.5206" y="-132.752" font-family="Times,serif" font-size="14.00">home</text>
<polyline fill="none" stroke="black" points="75.5206,-125.952 213.61,-125.952 "/>
<polyline fill="none" stroke="black" points="75.5206,-101.952 213.61,-101.952 "/>
<text text-anchor="start" x="83.5206" y="-86.7519" font-family="Times,serif" font-size="14.00">_layout</text>
</g>
<!-- ApplicationController&#45;&gt;StaticPagesController -->
<g id="edge4" class="edge"><title>ApplicationController&#45;&gt;StaticPagesController</title>
<path fill="none" stroke="black" d="M72.802,6.63263C87.3399,-20.0238 105.533,-53.3831 119.964,-79.8426"/>
</g>
<!-- UsersController -->
<g id="node7" class="node"><title>UsersController</title>
<path fill="none" stroke="black" d="M-145.525,-55.7458C-145.525,-55.7458 -35.3179,-55.7458 -35.3179,-55.7458 -29.3179,-55.7458 -23.3179,-61.7458 -23.3179,-67.7458 -23.3179,-67.7458 -23.3179,-273.746 -23.3179,-273.746 -23.3179,-279.746 -29.3179,-285.746 -35.3179,-285.746 -35.3179,-285.746 -145.525,-285.746 -145.525,-285.746 -151.525,-285.746 -157.525,-279.746 -157.525,-273.746 -157.525,-273.746 -157.525,-67.7458 -157.525,-67.7458 -157.525,-61.7458 -151.525,-55.7458 -145.525,-55.7458"/>
<text text-anchor="middle" x="-90.4214" y="-270.546" font-family="Times,serif" font-size="14.00">UsersController</text>
<polyline fill="none" stroke="black" points="-157.525,-263.746 -23.3179,-263.746 "/>
<text text-anchor="start" x="-149.525" y="-248.546" font-family="Times,serif" font-size="14.00">create</text>
<text text-anchor="start" x="-149.525" y="-234.546" font-family="Times,serif" font-size="14.00">destroy</text>
<text text-anchor="start" x="-149.525" y="-220.546" font-family="Times,serif" font-size="14.00">edit</text>
<text text-anchor="start" x="-149.525" y="-206.546" font-family="Times,serif" font-size="14.00">index</text>
<text text-anchor="start" x="-149.525" y="-192.546" font-family="Times,serif" font-size="14.00">new</text>
<text text-anchor="start" x="-149.525" y="-178.546" font-family="Times,serif" font-size="14.00">show</text>
<text text-anchor="start" x="-149.525" y="-164.546" font-family="Times,serif" font-size="14.00">update</text>
<polyline fill="none" stroke="black" points="-157.525,-157.746 -23.3179,-157.746 "/>
<polyline fill="none" stroke="black" points="-157.525,-133.746 -23.3179,-133.746 "/>
<text text-anchor="start" x="-149.525" y="-118.546" font-family="Times,serif" font-size="14.00">_layout</text>
<text text-anchor="start" x="-149.525" y="-104.546" font-family="Times,serif" font-size="14.00">admin_user</text>
<text text-anchor="start" x="-149.525" y="-90.5458" font-family="Times,serif" font-size="14.00">correct_user</text>
<text text-anchor="start" x="-149.525" y="-76.5458" font-family="Times,serif" font-size="14.00">signed_in_user_filter</text>
<text text-anchor="start" x="-149.525" y="-62.5458" font-family="Times,serif" font-size="14.00">user_params</text>
</g>
<!-- ApplicationController&#45;&gt;UsersController -->
<g id="edge5" class="edge"><title>ApplicationController&#45;&gt;UsersController</title>
<path fill="none" stroke="black" d="M19.1463,6.82822C6.75938,-13.247 -8.33335,-37.7074 -23.3078,-61.9761"/>
</g>
</g>
</svg>
