<?xml version="1.0" encoding="UTF-8" standalone="no"?>
<!DOCTYPE svg PUBLIC "-//W3C//DTD SVG 1.1//EN"
 "http://www.w3.org/Graphics/SVG/1.1/DTD/svg11.dtd">
<!-- Generated by graphviz version 2.38.0 (20140413.2041)
 -->
<!-- Title: models_diagram Pages: 1 -->
<svg width="421pt" height="369pt"
 viewBox="0.00 0.00 421.00 369.00" xmlns="http://www.w3.org/2000/svg" xmlns:xlink="http://www.w3.org/1999/xlink">
<g id="graph0" class="graph" transform="scale(1 1) rotate(0) translate(4 365)">
<title>models_diagram</title>
<polygon fill="white" stroke="none" points="-4,4 -4,-365 416.997,-365 416.997,4 -4,4"/>
<!-- _diagram_info -->
<g id="node1" class="node"><title>_diagram_info</title>
<text text-anchor="start" x="8" y="-346.6" font-family="Times,serif" font-size="13.00">Models diagram</text>
<text text-anchor="start" x="8" y="-333.6" font-family="Times,serif" font-size="13.00">Date: Jun 24 2014 &#45; 13:13</text>
<text text-anchor="start" x="8" y="-320.6" font-family="Times,serif" font-size="13.00">Migration version: 20140620233018</text>
<text text-anchor="start" x="8" y="-307.6" font-family="Times,serif" font-size="13.00">Generated by RailRoady 1.1.1</text>
<text text-anchor="start" x="8" y="-294.6" font-family="Times,serif" font-size="13.00">http://railroady.prestonlee.com</text>
</g>
<!-- Kanban -->
<g id="node2" class="node"><title>Kanban</title>
<ellipse fill="none" stroke="black" cx="270.688" cy="-162" rx="37.7179" ry="18"/>
<text text-anchor="middle" x="270.688" y="-157.8" font-family="Times,serif" font-size="14.00">Kanban</text>
</g>
<!-- KanbanMilestone -->
<g id="node3" class="node"><title>KanbanMilestone</title>
<ellipse fill="none" stroke="black" cx="196.688" cy="-90" rx="72.9567" ry="18"/>
<text text-anchor="middle" x="196.688" y="-85.8" font-family="Times,serif" font-size="14.00">KanbanMilestone</text>
</g>
<!-- Kanban&#45;&gt;KanbanMilestone -->
<g id="edge2" class="edge"><title>Kanban&#45;&gt;KanbanMilestone</title>
<path fill="none" stroke="#8c5071" d="M248.445,-139.959C240.006,-131.977 230.344,-122.837 221.669,-114.631"/>
<ellipse fill="none" stroke="#8c5071" cx="251.359" cy="-142.716" rx="4.00002" ry="4.00002"/>
<polygon fill="#8c5071" stroke="#8c5071" points="221.621,-114.586 217.449,-104.445 217.989,-111.15 214.357,-107.714 214.357,-107.714 214.357,-107.714 217.989,-111.15 211.264,-110.983 221.621,-114.586 221.621,-114.586"/>
</g>
<!-- Task -->
<g id="node5" class="node"><title>Task</title>
<ellipse fill="none" stroke="black" cx="343.688" cy="-90" rx="56.2326" ry="18"/>
<text text-anchor="middle" x="343.688" y="-85.8" font-family="Times,serif" font-size="14.00">Task</text>
</g>
<!-- Kanban&#45;&gt;Task -->
<g id="edge1" class="edge"><title>Kanban&#45;&gt;Task</title>
<path fill="none" stroke="#69eb80" d="M294.247,-138.409C302.193,-130.79 311.079,-122.269 319.102,-114.575"/>
<polygon fill="#69eb80" stroke="#69eb80" points="294.107,-138.544 283.774,-142.217 290.498,-142.004 286.889,-145.465 286.889,-145.465 286.889,-145.465 290.498,-142.004 290.003,-148.713 294.107,-138.544 294.107,-138.544"/>
<polygon fill="#69eb80" stroke="#69eb80" points="319.553,-114.143 329.886,-110.47 323.162,-110.682 326.771,-107.222 326.771,-107.222 326.771,-107.222 323.162,-110.682 323.656,-103.974 319.553,-114.143 319.553,-114.143"/>
</g>
<!-- Milestone -->
<g id="node4" class="node"><title>Milestone</title>
<ellipse fill="none" stroke="black" cx="343.688" cy="-18" rx="45.4527" ry="18"/>
<text text-anchor="middle" x="343.688" y="-13.8" font-family="Times,serif" font-size="14.00">Milestone</text>
</g>
<!-- KanbanMilestone&#45;&gt;Milestone -->
<g id="edge4" class="edge"><title>KanbanMilestone&#45;&gt;Milestone</title>
<path fill="none" stroke="#68d547" d="M236.469,-70.0565C258.228,-59.695 285.021,-46.9366 306.38,-36.7657"/>
<ellipse fill="none" stroke="#68d547" cx="232.559" cy="-71.9184" rx="4.00002" ry="4.00002"/>
<polygon fill="#68d547" stroke="#68d547" points="306.442,-36.7359 317.406,-36.4994 310.957,-34.5862 315.471,-32.4365 315.471,-32.4365 315.471,-32.4365 310.957,-34.5862 313.536,-28.3736 306.442,-36.7359 306.442,-36.7359"/>
</g>
<!-- Task&#45;&gt;Milestone -->
<g id="edge7" class="edge"><title>Task&#45;&gt;Milestone</title>
<path fill="none" stroke="#c0b422" d="M343.688,-63.6398C343.688,-58.0629 343.688,-52.1319 343.688,-46.4761"/>
<ellipse fill="none" stroke="#c0b422" cx="343.688" cy="-67.6966" rx="4" ry="4"/>
<polygon fill="#c0b422" stroke="#c0b422" points="343.688,-46.1043 348.188,-36.1043 343.688,-41.1043 343.688,-36.1043 343.688,-36.1043 343.688,-36.1043 343.688,-41.1043 339.188,-36.1044 343.688,-46.1043 343.688,-46.1043"/>
</g>
<!-- User -->
<g id="node6" class="node"><title>User</title>
<ellipse fill="none" stroke="black" cx="251.688" cy="-234" rx="27" ry="18"/>
<text text-anchor="middle" x="251.688" y="-229.8" font-family="Times,serif" font-size="14.00">User</text>
</g>
<!-- User&#45;&gt;Kanban -->
<g id="edge9" class="edge"><title>User&#45;&gt;Kanban</title>
<path fill="none" stroke="#25061b" d="M258.401,-208.267C260.01,-202.34 261.736,-195.981 263.37,-189.959"/>
<ellipse fill="none" stroke="#25061b" cx="257.335" cy="-212.195" rx="4.00001" ry="4.00001"/>
<polygon fill="#25061b" stroke="#25061b" points="263.379,-189.926 270.342,-181.454 264.689,-185.101 265.999,-180.275 265.999,-180.275 265.999,-180.275 264.689,-185.101 261.656,-179.096 263.379,-189.926 263.379,-189.926"/>
</g>
<!-- ActiveRecord::Base -->
<g id="node7" class="node"><title>ActiveRecord::Base</title>
<ellipse fill="none" stroke="black" cx="306.688" cy="-324.5" rx="81.1422" ry="18"/>
<text text-anchor="middle" x="306.688" y="-320.3" font-family="Times,serif" font-size="14.00">ActiveRecord::Base</text>
</g>
<!-- ActiveRecord::Base&#45;&gt;Kanban -->
<g id="edge3" class="edge"><title>ActiveRecord::Base&#45;&gt;Kanban</title>
<path fill="none" stroke="black" d="M304.37,-306.221C301.337,-284.855 295.475,-247.459 287.688,-216 284.669,-203.806 280.333,-190.329 276.795,-180.017"/>
</g>
<!-- ActiveRecord::Base&#45;&gt;KanbanMilestone -->
<g id="edge5" class="edge"><title>ActiveRecord::Base&#45;&gt;KanbanMilestone</title>
<path fill="none" stroke="black" d="M275.599,-307.611C255.004,-295.344 229.349,-276.358 215.688,-252 189.528,-205.359 191.733,-139.265 194.609,-108.286"/>
</g>
<!-- ActiveRecord::Base&#45;&gt;Milestone -->
<g id="edge6" class="edge"><title>ActiveRecord::Base&#45;&gt;Milestone</title>
<path fill="none" stroke="black" d="M317.939,-306.58C340.56,-271.426 390.901,-187.155 408.688,-108 412.196,-92.3893 415.552,-86.453 408.688,-72 400.692,-55.1645 384.442,-41.9145 370.191,-32.8734"/>
</g>
<!-- ActiveRecord::Base&#45;&gt;Task -->
<g id="edge8" class="edge"><title>ActiveRecord::Base&#45;&gt;Task</title>
<path fill="none" stroke="black" d="M309.408,-306.404C316.251,-263.407 334.116,-151.145 340.963,-108.121"/>
</g>
<!-- ActiveRecord::Base&#45;&gt;User -->
<g id="edge10" class="edge"><title>ActiveRecord::Base&#45;&gt;User</title>
<path fill="none" stroke="black" d="M296.083,-306.436C286.094,-290.363 271.249,-266.477 261.521,-250.822"/>
</g>
</g>
</svg>
