<?xml version="1.0" encoding="UTF-8" standalone="no"?>
<!DOCTYPE svg PUBLIC "-//W3C//DTD SVG 1.1//EN"
 "http://www.w3.org/Graphics/SVG/1.1/DTD/svg11.dtd">
<!-- Generated by graphviz version 2.38.0 (20140413.2041)
 -->
<!-- Title: models_diagram Pages: 1 -->
<svg width="400pt" height="755pt"
 viewBox="0.00 0.00 399.68 755.00" xmlns="http://www.w3.org/2000/svg" xmlns:xlink="http://www.w3.org/1999/xlink">
<g id="graph0" class="graph" transform="scale(1 1) rotate(0) translate(4 751)">
<title>models_diagram</title>
<polygon fill="white" stroke="none" points="-4,4 -4,-751 395.681,-751 395.681,4 -4,4"/>
<!-- _diagram_info -->
<g id="node1" class="node"><title>_diagram_info</title>
<text text-anchor="start" x="8" y="-732.6" font-family="Times,serif" font-size="13.00">Models diagram</text>
<text text-anchor="start" x="8" y="-719.6" font-family="Times,serif" font-size="13.00">Date: Jun 24 2014 &#45; 13:13</text>
<text text-anchor="start" x="8" y="-706.6" font-family="Times,serif" font-size="13.00">Migration version: 20140620233018</text>
<text text-anchor="start" x="8" y="-693.6" font-family="Times,serif" font-size="13.00">Generated by RailRoady 1.1.1</text>
<text text-anchor="start" x="8" y="-680.6" font-family="Times,serif" font-size="13.00">http://railroady.prestonlee.com</text>
</g>
<!-- Kanban -->
<g id="node2" class="node"><title>Kanban</title>
<path fill="none" stroke="black" d="M172.169,-330.5C172.169,-330.5 281.207,-330.5 281.207,-330.5 287.207,-330.5 293.207,-336.5 293.207,-342.5 293.207,-342.5 293.207,-446.5 293.207,-446.5 293.207,-452.5 287.207,-458.5 281.207,-458.5 281.207,-458.5 172.169,-458.5 172.169,-458.5 166.169,-458.5 160.169,-452.5 160.169,-446.5 160.169,-446.5 160.169,-342.5 160.169,-342.5 160.169,-336.5 166.169,-330.5 172.169,-330.5"/>
<text text-anchor="middle" x="226.688" y="-443.3" font-family="Times,serif" font-size="14.00">Kanban</text>
<polyline fill="none" stroke="black" points="160.169,-436.5 293.207,-436.5 "/>
<text text-anchor="start" x="168.169" y="-421.3" font-family="Times,serif" font-size="14.00">id :integer</text>
<text text-anchor="start" x="168.169" y="-407.3" font-family="Times,serif" font-size="14.00">name :string</text>
<text text-anchor="start" x="168.169" y="-393.3" font-family="Times,serif" font-size="14.00">user_id :integer</text>
<text text-anchor="start" x="168.169" y="-379.3" font-family="Times,serif" font-size="14.00">created_at :datetime</text>
<text text-anchor="start" x="168.169" y="-365.3" font-family="Times,serif" font-size="14.00">updated_at :datetime</text>
<text text-anchor="start" x="168.169" y="-351.3" font-family="Times,serif" font-size="14.00">settings :hstore</text>
<text text-anchor="start" x="168.169" y="-337.3" font-family="Times,serif" font-size="14.00">columnholder :string</text>
</g>
<!-- KanbanMilestone -->
<g id="node3" class="node"><title>KanbanMilestone</title>
<path fill="none" stroke="black" d="M57.1824,-179.5C57.1824,-179.5 166.193,-179.5 166.193,-179.5 172.193,-179.5 178.193,-185.5 178.193,-191.5 178.193,-191.5 178.193,-267.5 178.193,-267.5 178.193,-273.5 172.193,-279.5 166.193,-279.5 166.193,-279.5 57.1824,-279.5 57.1824,-279.5 51.1824,-279.5 45.1824,-273.5 45.1824,-267.5 45.1824,-267.5 45.1824,-191.5 45.1824,-191.5 45.1824,-185.5 51.1824,-179.5 57.1824,-179.5"/>
<text text-anchor="middle" x="111.688" y="-264.3" font-family="Times,serif" font-size="14.00">KanbanMilestone</text>
<polyline fill="none" stroke="black" points="45.1824,-257.5 178.193,-257.5 "/>
<text text-anchor="start" x="53.1824" y="-242.3" font-family="Times,serif" font-size="14.00">id :integer</text>
<text text-anchor="start" x="53.1824" y="-228.3" font-family="Times,serif" font-size="14.00">kms_name :string</text>
<text text-anchor="start" x="53.1824" y="-214.3" font-family="Times,serif" font-size="14.00">created_at :datetime</text>
<text text-anchor="start" x="53.1824" y="-200.3" font-family="Times,serif" font-size="14.00">updated_at :datetime</text>
<text text-anchor="start" x="53.1824" y="-186.3" font-family="Times,serif" font-size="14.00">kanban_id :integer</text>
</g>
<!-- Kanban&#45;&gt;KanbanMilestone -->
<g id="edge2" class="edge"><title>Kanban&#45;&gt;KanbanMilestone</title>
<path fill="none" stroke="#cfe381" d="M177.455,-323.718C169.045,-311.797 160.393,-299.535 152.241,-287.98"/>
<ellipse fill="none" stroke="#cfe381" cx="179.92" cy="-327.212" rx="4.00002" ry="4.00002"/>
<polygon fill="#cfe381" stroke="#cfe381" points="152.168,-287.877 150.081,-277.112 149.286,-283.791 146.404,-279.706 146.404,-279.706 146.404,-279.706 149.286,-283.791 142.727,-282.3 152.168,-287.877 152.168,-287.877"/>
</g>
<!-- Task -->
<g id="node5" class="node"><title>Task</title>
<path fill="none" stroke="black" d="M208.461,-165.5C208.461,-165.5 342.915,-165.5 342.915,-165.5 348.915,-165.5 354.915,-171.5 354.915,-177.5 354.915,-177.5 354.915,-281.5 354.915,-281.5 354.915,-287.5 348.915,-293.5 342.915,-293.5 342.915,-293.5 208.461,-293.5 208.461,-293.5 202.461,-293.5 196.461,-287.5 196.461,-281.5 196.461,-281.5 196.461,-177.5 196.461,-177.5 196.461,-171.5 202.461,-165.5 208.461,-165.5"/>
<text text-anchor="middle" x="275.688" y="-278.3" font-family="Times,serif" font-size="14.00">Task</text>
<polyline fill="none" stroke="black" points="196.461,-271.5 354.915,-271.5 "/>
<text text-anchor="start" x="204.461" y="-256.3" font-family="Times,serif" font-size="14.00">id :integer</text>
<text text-anchor="start" x="204.461" y="-242.3" font-family="Times,serif" font-size="14.00">name :string</text>
<text text-anchor="start" x="204.461" y="-228.3" font-family="Times,serif" font-size="14.00">progress :hstore</text>
<text text-anchor="start" x="204.461" y="-214.3" font-family="Times,serif" font-size="14.00">content :string</text>
<text text-anchor="start" x="204.461" y="-200.3" font-family="Times,serif" font-size="14.00">created_at :datetime</text>
<text text-anchor="start" x="204.461" y="-186.3" font-family="Times,serif" font-size="14.00">updated_at :datetime</text>
<text text-anchor="start" x="204.461" y="-172.3" font-family="Times,serif" font-size="14.00">org_columnholder :string</text>
</g>
<!-- Kanban&#45;&gt;Task -->
<g id="edge1" class="edge"><title>Kanban&#45;&gt;Task</title>
<path fill="none" stroke="#9c01fd" d="M248.56,-320.743C250.302,-314.947 252.062,-309.093 253.804,-303.297"/>
<polygon fill="#9c01fd" stroke="#9c01fd" points="248.511,-320.903 241.323,-329.184 247.072,-325.692 245.632,-330.48 245.632,-330.48 245.632,-330.48 247.072,-325.692 249.942,-331.775 248.511,-320.903 248.511,-320.903"/>
<polygon fill="#9c01fd" stroke="#9c01fd" points="253.834,-303.198 261.022,-294.917 255.273,-298.41 256.713,-293.621 256.713,-293.621 256.713,-293.621 255.273,-298.41 252.403,-292.326 253.834,-303.198 253.834,-303.198"/>
</g>
<!-- Milestone -->
<g id="node4" class="node"><title>Milestone</title>
<path fill="none" stroke="black" d="M196.682,-0.5C196.682,-0.5 354.693,-0.5 354.693,-0.5 360.693,-0.5 366.693,-6.5 366.693,-12.5 366.693,-12.5 366.693,-116.5 366.693,-116.5 366.693,-122.5 360.693,-128.5 354.693,-128.5 354.693,-128.5 196.682,-128.5 196.682,-128.5 190.682,-128.5 184.682,-122.5 184.682,-116.5 184.682,-116.5 184.682,-12.5 184.682,-12.5 184.682,-6.5 190.682,-0.5 196.682,-0.5"/>
<text text-anchor="middle" x="275.688" y="-113.3" font-family="Times,serif" font-size="14.00">Milestone</text>
<polyline fill="none" stroke="black" points="184.682,-106.5 366.693,-106.5 "/>
<text text-anchor="start" x="192.682" y="-91.3" font-family="Times,serif" font-size="14.00">id :integer</text>
<text text-anchor="start" x="192.682" y="-77.3" font-family="Times,serif" font-size="14.00">milestone_key :string</text>
<text text-anchor="start" x="192.682" y="-63.3" font-family="Times,serif" font-size="14.00">milestone_value :string</text>
<text text-anchor="start" x="192.682" y="-49.3" font-family="Times,serif" font-size="14.00">created_at :datetime</text>
<text text-anchor="start" x="192.682" y="-35.3" font-family="Times,serif" font-size="14.00">updated_at :datetime</text>
<text text-anchor="start" x="192.682" y="-21.3" font-family="Times,serif" font-size="14.00">kanban_milestone_id :integer</text>
<text text-anchor="start" x="192.682" y="-7.3" font-family="Times,serif" font-size="14.00">task_id :integer</text>
</g>
<!-- KanbanMilestone&#45;&gt;Milestone -->
<g id="edge4" class="edge"><title>KanbanMilestone&#45;&gt;Milestone</title>
<path fill="none" stroke="#045918" d="M167.049,-173.477C179.185,-161.415 192.194,-148.485 204.843,-135.913"/>
<ellipse fill="none" stroke="#045918" cx="164.175" cy="-176.333" rx="4.00002" ry="4.00002"/>
<polygon fill="#045918" stroke="#045918" points="205.146,-135.611 215.411,-131.754 208.693,-132.087 212.239,-128.562 212.239,-128.562 212.239,-128.562 208.693,-132.087 209.067,-125.37 205.146,-135.611 205.146,-135.611"/>
</g>
<!-- Task&#45;&gt;Milestone -->
<g id="edge7" class="edge"><title>Task&#45;&gt;Milestone</title>
<path fill="none" stroke="#4ff46a" d="M275.688,-157.473C275.688,-151.322 275.688,-145.09 275.688,-138.92"/>
<ellipse fill="none" stroke="#4ff46a" cx="275.688" cy="-161.48" rx="4" ry="4"/>
<polygon fill="#4ff46a" stroke="#4ff46a" points="275.688,-138.621 280.188,-128.621 275.688,-133.621 275.688,-128.621 275.688,-128.621 275.688,-128.621 275.688,-133.621 271.188,-128.621 275.688,-138.621 275.688,-138.621"/>
</g>
<!-- User -->
<g id="node6" class="node"><title>User</title>
<path fill="none" stroke="black" d="M140.624,-495.5C140.624,-495.5 266.752,-495.5 266.752,-495.5 272.752,-495.5 278.752,-501.5 278.752,-507.5 278.752,-507.5 278.752,-625.5 278.752,-625.5 278.752,-631.5 272.752,-637.5 266.752,-637.5 266.752,-637.5 140.624,-637.5 140.624,-637.5 134.624,-637.5 128.624,-631.5 128.624,-625.5 128.624,-625.5 128.624,-507.5 128.624,-507.5 128.624,-501.5 134.624,-495.5 140.624,-495.5"/>
<text text-anchor="middle" x="203.688" y="-622.3" font-family="Times,serif" font-size="14.00">User</text>
<polyline fill="none" stroke="black" points="128.624,-615.5 278.752,-615.5 "/>
<text text-anchor="start" x="136.624" y="-600.3" font-family="Times,serif" font-size="14.00">id :integer</text>
<text text-anchor="start" x="136.624" y="-586.3" font-family="Times,serif" font-size="14.00">username :string</text>
<text text-anchor="start" x="136.624" y="-572.3" font-family="Times,serif" font-size="14.00">email :string</text>
<text text-anchor="start" x="136.624" y="-558.3" font-family="Times,serif" font-size="14.00">created_at :datetime</text>
<text text-anchor="start" x="136.624" y="-544.3" font-family="Times,serif" font-size="14.00">updated_at :datetime</text>
<text text-anchor="start" x="136.624" y="-530.3" font-family="Times,serif" font-size="14.00">password_digest :string</text>
<text text-anchor="start" x="136.624" y="-516.3" font-family="Times,serif" font-size="14.00">remember_token :string</text>
<text text-anchor="start" x="136.624" y="-502.3" font-family="Times,serif" font-size="14.00">admin :boolean</text>
</g>
<!-- User&#45;&gt;Kanban -->
<g id="edge9" class="edge"><title>User&#45;&gt;Kanban</title>
<path fill="none" stroke="#9aca8c" d="M214.262,-487.341C215.095,-481.186 215.934,-474.982 216.762,-468.861"/>
<ellipse fill="none" stroke="#9aca8c" cx="213.712" cy="-491.409" rx="4.00001" ry="4.00001"/>
<polygon fill="#9aca8c" stroke="#9aca8c" points="216.802,-468.57 222.602,-459.264 217.472,-463.615 218.143,-458.66 218.143,-458.66 218.143,-458.66 217.472,-463.615 213.683,-458.057 216.802,-468.57 216.802,-468.57"/>
</g>
<!-- ActiveRecord::Base -->
<g id="node7" class="node"><title>ActiveRecord::Base</title>
<ellipse fill="none" stroke="black" cx="306.688" cy="-710.5" rx="81.1422" ry="18"/>
<text text-anchor="middle" x="306.688" y="-706.3" font-family="Times,serif" font-size="14.00">ActiveRecord::Base</text>
</g>
<!-- ActiveRecord::Base&#45;&gt;Kanban -->
<g id="edge3" class="edge"><title>ActiveRecord::Base&#45;&gt;Kanban</title>
<path fill="none" stroke="black" d="M307.78,-692.281C309.578,-655.163 310.914,-565.285 287.688,-495 283.619,-482.687 277.772,-470.312 271.29,-458.675"/>
</g>
<!-- ActiveRecord::Base&#45;&gt;KanbanMilestone -->
<g id="edge5" class="edge"><title>ActiveRecord::Base&#45;&gt;KanbanMilestone</title>
<path fill="none" stroke="black" d="M269.096,-694.475C252.987,-688.088 233.943,-680.604 216.688,-674 173.742,-657.563 146.314,-675.492 119.688,-638 42.9687,-529.972 74.2011,-361.96 96.5095,-279.51"/>
</g>
<!-- ActiveRecord::Base&#45;&gt;Milestone -->
<g id="edge6" class="edge"><title>ActiveRecord::Base&#45;&gt;Milestone</title>
<path fill="none" stroke="black" d="M313.955,-692.299C341.989,-623.314 437.924,-360.992 363.688,-165 358.827,-152.168 351.473,-139.926 343.046,-128.693"/>
</g>
<!-- ActiveRecord::Base&#45;&gt;Task -->
<g id="edge8" class="edge"><title>ActiveRecord::Base&#45;&gt;Task</title>
<path fill="none" stroke="black" d="M308.31,-692.325C313.012,-638.464 324.958,-468.232 302.688,-330 300.78,-318.16 298.022,-305.703 294.989,-293.761"/>
</g>
<!-- ActiveRecord::Base&#45;&gt;User -->
<g id="edge10" class="edge"><title>ActiveRecord::Base&#45;&gt;User</title>
<path fill="none" stroke="black" d="M294.468,-692.653C284.396,-678.768 269.39,-658.08 254.465,-637.504"/>
</g>
</g>
</svg>
